<?xml version="1.0" encoding="utf-8"?>
<!-- Generator: Adobe Illustrator 27.5.0, SVG Export Plug-In . SVG Version: 6.00 Build 0)  -->
<svg version="1.1" id="Layer_1" xmlns="http://www.w3.org/2000/svg" xmlns:xlink="http://www.w3.org/1999/xlink" x="0px" y="0px"
	 viewBox="0 0 800 800" style="enable-background:new 0 0 800 800;" xml:space="preserve">
<rect x="0" y="0" style="fill-rule:evenodd;clip-rule:evenodd;fill:#FFFFFF;" width="800" height="800"/>
<g>
	<linearGradient id="SVGID_1_" gradientUnits="userSpaceOnUse" x1="210.3515" y1="408.9204" x2="581.4236" y2="408.9204">
		<stop  offset="0" style="stop-color:#FF6AB0"/>
		<stop  offset="1" style="stop-color:#A9002F"/>
	</linearGradient>
	<path style="fill-rule:evenodd;clip-rule:evenodd;fill:url(#SVGID_1_);" d="M503.115,458.22
		c71.672-67.656,80.998-156.223,20.827-197.818c-1.122-0.776-2.263-1.532-3.419-2.265c6.141,2.85,11.977,6.165,17.462,9.955
		c65.883,45.544,55.67,142.518-22.805,216.599c-78.481,74.081-195.508,97.214-261.392,51.669
		c-58.602-40.512-56.998-121.715-0.696-191.303c-40.673,60.037-38.235,126.111,11.299,160.353
		C324.559,547.003,431.44,525.877,503.115,458.22z"/>
	
		<linearGradient id="SVGID_00000115482420234606255350000012818976605165379973_" gradientUnits="userSpaceOnUse" x1="204.0354" y1="496.8766" x2="608.417" y2="496.8766">
		<stop  offset="0" style="stop-color:#3FF1FF"/>
		<stop  offset="0.543" style="stop-color:#007BD4"/>
		<stop  offset="1" style="stop-color:#005BD4"/>
	</linearGradient>
	<path style="fill-rule:evenodd;clip-rule:evenodd;fill:url(#SVGID_00000115482420234606255350000012818976605165379973_);" d="
		M266.216,553.435c77.268,53.414,209.135,34.074,294.531-43.199c20.417-18.476,36.329-38.59,47.67-59.233
		c-11.247,26.557-29.942,52.745-55.95,76.278c-85.396,77.273-217.264,96.612-294.531,43.198
		c-58.793-40.644-69.033-111.699-32.95-177.395C199.301,453.731,212.48,516.287,266.216,553.435z"/>
	
		<linearGradient id="SVGID_00000020393257307615087710000005719589442310994866_" gradientUnits="userSpaceOnUse" x1="190.9697" y1="563.9501" x2="581.5977" y2="563.9501">
		<stop  offset="0" style="stop-color:#FFD394"/>
		<stop  offset="0.543" style="stop-color:#FFAA54"/>
		<stop  offset="1" style="stop-color:#FF8415"/>
	</linearGradient>
	<path style="fill-rule:evenodd;clip-rule:evenodd;fill:url(#SVGID_00000020393257307615087710000005719589442310994866_);" d="
		M262.09,592.993c89.103,61.596,229.035,56.555,319.508-9.592c-81.262,79.555-221.732,92.271-314.29,28.287
		c-50.186-34.693-76.015-84.834-76.338-136.255C193.252,519.382,217.031,561.845,262.09,592.993z"/>
	
		<linearGradient id="SVGID_00000117669851266672365020000006549439181238462342_" gradientUnits="userSpaceOnUse" x1="211.6436" y1="300.1691" x2="459.1625" y2="300.1691">
		<stop  offset="0" style="stop-color:#FF6AB0"/>
		<stop  offset="1" style="stop-color:#A9002F"/>
	</linearGradient>
	<path style="fill-rule:evenodd;clip-rule:evenodd;fill:url(#SVGID_00000117669851266672365020000006549439181238462342_);" d="
		M425.37,468.478L425.37,468.478c-29.056,7.486-64.063-8.74-77.315-36.223c-3.116-6.464-6.056-12.99-9.057-19.491
		c18.66,1.58,38.189,0.168,57.298-4.761c19.107-4.93,35.815-12.854,49.423-22.767c2.756,6.565,5.505,13.154,8.488,19.641
		C466.926,432.513,454.398,460.998,425.37,468.478L425.37,468.478z M363.919,402.029c3.089-0.423,6.184-0.919,9.263-1.48
		c-20.131-39.509-39.644-79.072-54.433-120.093c-14.71-40.795-23.926-83.273-31.134-126.14
		c-33.006,17.716-27.481,49.333-27.378,49.73c5.661,18.235,13.358,41.812,22.811,60.993c9.513,19.303,20.287,34.362,28.759,36.715
		c7.805,16.932,15.86,33.836,24.551,50.498C345.084,368.981,354.447,385.501,363.919,402.029L363.919,402.029z M278.726,297.726
		c-5.156-8.964,0.958-4.059-1.948-16.885c-2.906-12.835-8.854-34.723-21.607-70.712c-13.771-29.592-43.526-18.927-43.526-18.927
		c14.711,36.988,31.349,73.733,52.047,108.888c20.978,35.627,45.202,69.834,69.94,104.225c4.292-0.071,8.583-0.247,12.871-0.528
		c-12.177-17.474-24.179-34.901-35.549-52.611C299.644,333.564,283.881,306.69,278.726,297.726L278.726,297.726z M417.836,388.121
		c-5.182-17.622-10.162-35.335-14.383-53.168c-4.223-17.843-7.535-35.95-10.581-54.097c6.109-6.146,7.731-24.572,8.729-46.419
		c1.011-22.073,1.795-47.659,2.698-67.583c-0.028-0.415,0.482-33.618-33.45-34.04c-0.642,44.893,0.39,89.247,7.095,132.381
		c6.662,42.85,18.6,84.636,31.4,126.035C412.203,390.234,415.053,389.204,417.836,388.121L417.836,388.121z M421.378,260.906
		c-0.254-10.234-3.071-3.033-6.358-15.763c-3.293-12.73-6.083-35.451-4.547-75.121c8.04-35.249,38.027-39.987,38.027-39.987
		c-6.616,42.481-12.133,84.396-12.855,125.681c-0.711,40.614,3.26,80.705,8.155,120.2c-3.46,1.93-7.045,3.786-10.681,5.551
		c-3.313-19.768-6.387-39.607-8.361-59.645C422.773,301.692,421.633,271.139,421.378,260.906L421.378,260.906z M386.058,398.014
		c3.538-0.929,7.058-1.818,10.579-2.708c-6.584-16.513-13.022-33.085-18.81-49.787c-5.779-16.675-10.768-33.657-15.537-50.611
		c11.465-10.124,6.29-57.244,1.871-83.425c-2.436-14.423-3.939-29.005-5.399-43.625c-5.81-18.406-19.63-28.689-29.075-26.243
		c-9.447,2.445-24.759,20.833-26.473,40.583c1.581,14.587,3.244,29.128,5.916,43.488c4.851,26.069,20.793,70.43,36.272,73.587
		c5.856,16.668,11.962,33.366,18.752,49.767C370.961,365.484,378.482,381.76,386.058,398.014L386.058,398.014z M351.039,283.882
		c-6.401-18.43-12.386-39.216-16.235-61.733c-3.849-22.518-5.075-44.519-5.118-64.617c3.059,19.306,5.968,40.902,9.777,63.429
		C343.275,243.487,347.608,264.673,351.039,283.882L351.039,283.882z M420.485,464.689c-23.053-2.398-45.682-16.816-55.652-37.719
		c-1.091-2.287-2.177-4.57-3.255-6.858c-4.042,0.111-8.012,0.097-11.978-0.095c1.044,2.263,2.12,4.519,3.213,6.798
		C364.585,451.371,393.715,466.964,420.485,464.689z"/>
	
		<linearGradient id="SVGID_00000000914268441486993180000007511980716021323163_" gradientUnits="userSpaceOnUse" x1="253.0683" y1="388.1731" x2="298.4259" y2="388.1731">
		<stop  offset="0" style="stop-color:#FFD394"/>
		<stop  offset="0.543" style="stop-color:#FFAA54"/>
		<stop  offset="1" style="stop-color:#FF8415"/>
	</linearGradient>
	<path style="fill-rule:evenodd;clip-rule:evenodd;fill:url(#SVGID_00000000914268441486993180000007511980716021323163_);" d="
		M297.168,366.397c-40.016,47.803-41.756,104.3-1.287,132.275c0.836,0.578,1.687,1.142,2.545,1.686
		c-4.572-2.121-8.921-4.591-13.005-7.415c-43.914-30.357-42.434-91.39,0.248-143.43
		C289.459,355.169,293.297,360.795,297.168,366.397L297.168,366.397z M443.495,275.988c20.149,1.207,38.654,6.788,53.613,17.13
		c43.655,30.176,42.46,90.663,0.521,142.497c30.297-44.719,28.482-93.937-8.413-119.442c-12.619-8.723-27.995-13.742-44.766-15.327
		C443.979,292.566,443.65,284.279,443.495,275.988z"/>
</g>
</svg>
